<?xml version="1.0" encoding="UTF-8"?>
<!-- Created with Inkscape (http://www.inkscape.org/) -->
<svg width="288" height="288" version="1.1" viewBox="0 0 288 288" xmlns="http://www.w3.org/2000/svg">
 <defs>
  <clipPath id="clipPath18">
   <path d="m44.66 100.55h160.54v100.16h-160.54z"/>
  </clipPath>
  <clipPath id="clipPath28">
   <path d="m44.66 100.55h160.54v100.16h-160.54z"/>
  </clipPath>
  <clipPath id="clipPath38">
   <path d="m44.66 100.55h160.54v100.16h-160.54z"/>
  </clipPath>
  <clipPath id="clipPath48">
   <path d="m44.66 100.55h160.54v100.16h-160.54z"/>
  </clipPath>
  <clipPath id="clipPath58">
   <path d="m44.66 100.55h160.54v100.16h-160.54z"/>
  </clipPath>
  <clipPath id="clipPath68">
   <path d="m44.66 100.55h160.54v100.16h-160.54z"/>
  </clipPath>
  <clipPath id="clipPath78">
   <path d="m44.66 100.55h160.54v100.16h-160.54z"/>
  </clipPath>
  <clipPath id="clipPath88">
   <path d="m44.66 100.55h160.54v100.16h-160.54z"/>
  </clipPath>
  <clipPath id="clipPath98">
   <path d="m44.66 100.55h160.54v100.16h-160.54z"/>
  </clipPath>
  <clipPath id="clipPath108">
   <path d="m44.66 100.55h160.54v100.16h-160.54z"/>
  </clipPath>
 </defs>
 <g transform="matrix(1.3333 0 0 -1.3333 0 288)">
  <g clip-path="url(#clipPath18)">
   <path d="m51.957 100.55h11.914v13.311h-11.914z" fill="#0173b2" stroke="#000" stroke-miterlimit="10"/>
  </g>
  <g clip-path="url(#clipPath28)">
   <path d="m66.85 100.55h11.914v19.966h-11.914z" fill="#de8f05" stroke="#000" stroke-miterlimit="10"/>
  </g>
  <g clip-path="url(#clipPath38)">
   <path d="m81.742 100.55h11.914v77.645h-11.914z" fill="#029e73" stroke="#000" stroke-miterlimit="10"/>
  </g>
  <g clip-path="url(#clipPath48)">
   <path d="m96.634 100.55h11.914v24.403h-11.914z" fill="#d55e00" stroke="#000" stroke-miterlimit="10"/>
  </g>
  <g clip-path="url(#clipPath58)">
   <path d="m111.53 100.55h11.914v42.15h-11.914z" fill="#cc78bc" stroke="#000" stroke-miterlimit="10"/>
  </g>
  <g clip-path="url(#clipPath68)">
   <path d="m126.42 100.55h11.914v95.393h-11.914z" fill="#ca9161" stroke="#000" stroke-miterlimit="10"/>
  </g>
  <g clip-path="url(#clipPath78)">
   <path d="m141.31 100.55h11.914v39.932h-11.914z" fill="#fbafe4" stroke="#000" stroke-miterlimit="10"/>
  </g>
  <g clip-path="url(#clipPath88)">
   <path d="m156.2 100.55h11.914v17.748h-11.914z" fill="#949494" stroke="#000" stroke-miterlimit="10"/>
  </g>
  <g clip-path="url(#clipPath98)">
   <path d="m171.1 100.55h11.914v33.277h-11.914z" fill="#ece133" stroke="#000" stroke-miterlimit="10"/>
  </g>
  <g clip-path="url(#clipPath108)">
   <path d="m185.99 100.55h11.914v22.184h-11.914z" fill="#56b4e9" stroke="#000" stroke-miterlimit="10"/>
  </g>
  <g>
   <path d="m57.914 100.55v-3.5" stroke="#000" stroke-linejoin="round" stroke-miterlimit="10" stroke-width=".8"/>
   <text transform="matrix(0,1,1,0,0,0)" x="36.523632" y="60.672043" fill="#000000" font-family="Georgia" font-size="10px" xml:space="preserve"><tspan x="36.523632" y="60.672043">conglutinans</tspan></text>
   <path d="m72.807 100.55v-3.5" stroke="#000" stroke-linejoin="round" stroke-miterlimit="10" stroke-width=".8"/>
   <text transform="matrix(0,1,1,0,0,0)" x="31.738476" y="75.564438" fill="#000000" font-family="Georgia" font-size="10px" xml:space="preserve"><tspan x="31.738476" y="75.564438">cucumerinum</tspan></text>
   <path d="m87.699 100.55v-3.5" stroke="#000" stroke-linejoin="round" stroke-miterlimit="10" stroke-width=".8"/>
   <text transform="matrix(0,1,1,0,0,0)" x="54.03828" y="90.456825" fill="#000000" font-family="Georgia" font-size="10px" xml:space="preserve"><tspan x="54.03828" y="90.456825">fragariae</tspan></text>
   <path d="m102.59 100.55v-3.5" stroke="#000" stroke-linejoin="round" stroke-miterlimit="10" stroke-width=".8"/>
   <text transform="matrix(0 1 1 0 105.35 78.862)" fill="#000000" font-family="Georgia" font-size="10px" xml:space="preserve"><tspan x="0" y="0">lini</tspan></text>
   <path d="m117.48 100.55v-3.5" stroke="#000" stroke-linejoin="round" stroke-miterlimit="10" stroke-width=".8"/>
   <text transform="matrix(0,1,1,0,0,0)" x="46.411327" y="120.24162" fill="#000000" font-family="Georgia" font-size="10px" xml:space="preserve"><tspan x="46.411327" y="120.24162">lycopersici</tspan></text>
   <path d="m132.38 100.55v-3.5" stroke="#000" stroke-linejoin="round" stroke-miterlimit="10" stroke-width=".8"/>
   <text transform="matrix(0,1,1,0,0,0)" x="58.574413" y="135.134" fill="#000000" font-family="Georgia" font-size="10px" xml:space="preserve"><tspan x="58.574413" y="135.134">melonis</tspan></text>
   <path d="m147.27 100.55v-3.5" stroke="#000" stroke-linejoin="round" stroke-miterlimit="10" stroke-width=".8"/>
   <text transform="matrix(0,1,1,0,0,0)" x="60.263866" y="150.0264" fill="#000000" font-family="Georgia" font-size="10px" xml:space="preserve"><tspan x="60.263866" y="150.0264">niveum</tspan></text>
   <path d="m162.16 100.55v-3.5" stroke="#000" stroke-linejoin="round" stroke-miterlimit="10" stroke-width=".8"/>
   <text transform="matrix(0,1,1,0,0,0)" x="61.88496" y="164.91879" fill="#000000" font-family="Georgia" font-size="10px" xml:space="preserve"><tspan x="61.88496" y="164.91879">physali</tspan></text>
   <path d="m177.05 100.55v-3.5" stroke="#000" stroke-linejoin="round" stroke-miterlimit="10" stroke-width=".8"/>
   <text transform="matrix(0,1,1,0,0,0)" x="52.202343" y="179.81119" fill="#000000" font-family="Georgia" font-size="10px" xml:space="preserve"><tspan x="52.202343" y="179.81119">spinaciae</tspan></text>
   <path d="m191.95 100.55v-3.5" stroke="#000" stroke-linejoin="round" stroke-miterlimit="10" stroke-width=".8"/>
   <text transform="matrix(0,1,1,0,0,0)" x="39.658398" y="194.70358" fill="#000000" font-family="Georgia" font-size="10px" xml:space="preserve"><tspan x="39.658398" y="194.70358">vasinfectum</tspan></text>
   <text transform="matrix(1 0 0 -1 87.992 13.034)" fill="#000000" font-family="Georgia" font-size="10px" xml:space="preserve"><tspan x="0" y="0">forma especial</tspan></text>
   <path d="m44.66 100.55h-3.5" stroke="#000" stroke-linejoin="round" stroke-miterlimit="10" stroke-width=".8"/>
   <text transform="scale(1,-1)" x="32.800625" y="-98.253128" fill="#000000" font-family="Georgia" font-size="10px" xml:space="preserve"><tspan x="32.800625" y="-98.253128">0</tspan></text>
   <path d="m44.66 122.73h-3.5" stroke="#000" stroke-linejoin="round" stroke-miterlimit="10" stroke-width=".8"/>
   <text transform="scale(1,-1)" x="28.50375" y="-120.43752" fill="#000000" font-family="Georgia" font-size="10px" xml:space="preserve"><tspan x="28.50375" y="-120.43752">10</tspan></text>
   <path d="m44.66 144.92h-3.5" stroke="#000" stroke-linejoin="round" stroke-miterlimit="10" stroke-width=".8"/>
   <text transform="scale(1,-1)" x="27.214687" y="-142.62192" fill="#000000" font-family="Georgia" font-size="10px" xml:space="preserve"><tspan x="27.214687" y="-142.62192">20</tspan></text>
   <path d="m44.66 167.1h-3.5" stroke="#000" stroke-linejoin="round" stroke-miterlimit="10" stroke-width=".8"/>
   <text transform="scale(1,-1)" x="27.283047" y="-164.80632" fill="#000000" font-family="Georgia" font-size="10px" xml:space="preserve"><tspan x="27.283047" y="-164.80632">30</tspan></text>
   <path d="m44.66 189.29h-3.5" stroke="#000" stroke-linejoin="round" stroke-miterlimit="10" stroke-width=".8"/>
   <text transform="scale(1,-1)" x="27.151211" y="-186.99072" fill="#000000" font-family="Georgia" font-size="10px" xml:space="preserve"><tspan x="27.151211" y="-186.99072">40</tspan></text>
   <text transform="matrix(0 1 1 0 18.863 133.55)" fill="#000000" font-family="Georgia" font-size="10px" xml:space="preserve"><tspan x="0" y="0">genomas</tspan></text>
  </g>
  <path d="m44.66 100.55v100.16" fill="none" stroke="#000" stroke-linecap="square" stroke-miterlimit="10" stroke-width=".8"/>
  <path d="m44.66 100.55h160.54" fill="none" stroke="#000" stroke-linecap="square" stroke-miterlimit="10" stroke-width=".8"/>
  <g fill="#000000" font-family="Georgia" font-size="10px">
   <text transform="scale(1,-1)" x="54.734543" y="-117.03971" xml:space="preserve"><tspan x="54.734543" y="-117.03971">6</tspan></text>
   <text transform="scale(1,-1)" x="69.626938" y="-123.69503" xml:space="preserve"><tspan x="69.626938" y="-123.69503">9</tspan></text>
   <text transform="scale(1,-1)" x="82.352333" y="-181.37447" xml:space="preserve"><tspan x="82.352333" y="-181.37447">35</tspan></text>
   <text transform="scale(1,-1)" x="98.148048" y="-128.13191" xml:space="preserve"><tspan x="98.148048" y="-128.13191">11</tspan></text>
   <text transform="scale(1,-1)" x="112.43742" y="-145.87943" xml:space="preserve"><tspan x="112.43742" y="-145.87943">19</tspan></text>
   <text transform="scale(1,-1)" x="126.92698" y="-199.12198" xml:space="preserve"><tspan x="126.92698" y="-199.12198">43</tspan></text>
   <text transform="scale(1,-1)" x="142.07327" y="-143.66098" xml:space="preserve"><tspan x="142.07327" y="-143.66098">18</tspan></text>
   <text transform="scale(1,-1)" x="158.98129" y="-121.47659" xml:space="preserve"><tspan x="158.98129" y="-121.47659">8</tspan></text>
   <text transform="scale(1,-1)" x="172.15347" y="-137.00566" xml:space="preserve"><tspan x="172.15347" y="-137.00566">15</tspan></text>
   <text transform="scale(1,-1)" x="186.66013" y="-125.91347" xml:space="preserve"><tspan x="186.66013" y="-125.91347">10</tspan></text>
  </g>
 </g>
</svg>
